<?xml version="1.0" encoding="UTF-8"?>
<svg xmlns="http://www.w3.org/2000/svg" xmlns:xlink="http://www.w3.org/1999/xlink" width="1296pt" height="216pt" viewBox="0 0 1296 216" version="1.1">
<defs>
<clipPath id="clip1">
  <path d="M 644 38.964844 L 658 38.964844 L 658 143 L 644 143 Z M 644 38.964844 "/>
</clipPath>
</defs>
<g id="surface4774">
<rect x="0" y="0" width="1296" height="216" style="fill:rgb(100%,100%,100%);fill-opacity:1;stroke:none;"/>
<path style="fill:none;stroke-width:0.75;stroke-linecap:round;stroke-linejoin:round;stroke:rgb(74.509804%,74.509804%,74.509804%);stroke-opacity:1;stroke-miterlimit:10;" d="M 81.503906 103.246094 L 81.503906 63.863281 "/>
<path style="fill:none;stroke-width:0.75;stroke-linecap:round;stroke-linejoin:round;stroke:rgb(74.509804%,74.509804%,74.509804%);stroke-opacity:1;stroke-miterlimit:10;" d="M 81.503906 103.246094 L 112.296875 78.691406 "/>
<path style="fill:none;stroke-width:0.75;stroke-linecap:round;stroke-linejoin:round;stroke:rgb(74.509804%,74.509804%,74.509804%);stroke-opacity:1;stroke-miterlimit:10;" d="M 81.503906 103.246094 L 119.902344 112.011719 "/>
<path style="fill:none;stroke-width:0.75;stroke-linecap:round;stroke-linejoin:round;stroke:rgb(74.509804%,74.509804%,74.509804%);stroke-opacity:1;stroke-miterlimit:10;" d="M 81.503906 103.246094 L 98.59375 138.734375 "/>
<path style="fill:none;stroke-width:0.75;stroke-linecap:round;stroke-linejoin:round;stroke:rgb(74.509804%,74.509804%,74.509804%);stroke-opacity:1;stroke-miterlimit:10;" d="M 81.503906 103.246094 L 64.414062 138.734375 "/>
<path style="fill:none;stroke-width:0.75;stroke-linecap:round;stroke-linejoin:round;stroke:rgb(74.509804%,74.509804%,74.509804%);stroke-opacity:1;stroke-miterlimit:10;" d="M 81.503906 103.246094 L 43.105469 112.011719 "/>
<path style="fill:none;stroke-width:0.75;stroke-linecap:round;stroke-linejoin:round;stroke:rgb(74.509804%,74.509804%,74.509804%);stroke-opacity:1;stroke-miterlimit:10;" d="M 81.503906 103.246094 L 50.710938 78.691406 "/>
<path style="fill:none;stroke-width:0.75;stroke-linecap:round;stroke-linejoin:round;stroke:rgb(74.509804%,74.509804%,74.509804%);stroke-opacity:1;stroke-miterlimit:10;" d="M 81.503906 101.058594 L 83.214844 101.882812 L 83.636719 103.734375 L 82.453125 105.21875 L 80.554688 105.21875 L 79.371094 103.734375 L 79.792969 101.882812 L 81.503906 101.058594 "/>
<path style="fill:none;stroke-width:0.75;stroke-linecap:round;stroke-linejoin:round;stroke:rgb(74.509804%,74.509804%,74.509804%);stroke-opacity:1;stroke-miterlimit:10;" d="M 81.503906 90.117188 L 91.769531 95.0625 L 94.304688 106.167969 L 87.199219 115.078125 L 75.808594 115.078125 L 68.703125 106.167969 L 71.238281 95.0625 L 81.503906 90.117188 "/>
<path style="fill:none;stroke-width:0.75;stroke-linecap:round;stroke-linejoin:round;stroke:rgb(74.509804%,74.509804%,74.509804%);stroke-opacity:1;stroke-miterlimit:10;" d="M 81.503906 79.179688 L 100.324219 88.242188 L 104.96875 108.605469 L 91.949219 124.933594 L 71.0625 124.933594 L 58.039062 108.605469 L 62.6875 88.242188 L 81.503906 79.179688 "/>
<path style="fill:none;stroke-width:0.75;stroke-linecap:round;stroke-linejoin:round;stroke:rgb(74.509804%,74.509804%,74.509804%);stroke-opacity:1;stroke-miterlimit:10;" d="M 81.503906 68.238281 L 108.875 81.417969 L 115.636719 111.039062 L 96.695312 134.792969 L 66.3125 134.792969 L 47.371094 111.039062 L 54.132812 81.417969 L 81.503906 68.238281 "/>
<path style="fill:none;stroke-width:0.75;stroke-linecap:round;stroke-linejoin:round;stroke:rgb(0.784314%,24.705882%,64.705882%);stroke-opacity:0.8;stroke-miterlimit:10;" d="M 81.503906 90.117188 L 86.636719 99.15625 L 81.503906 103.246094 L 95.746094 132.820312 L 79.605469 107.191406 L 72.972656 105.195312 L 54.132812 81.417969 L 81.503906 90.117188 "/>
<path style="fill:none;stroke-width:0.75;stroke-linecap:round;stroke-linejoin:round;stroke:rgb(49.019608%,52.941176%,72.54902%);stroke-opacity:0.8;stroke-miterlimit:10;" d="M 81.503906 87.929688 L 91.769531 95.0625 L 94.304688 106.167969 L 92.898438 126.90625 L 77.707031 111.132812 L 68.703125 106.167969 L 69.527344 93.699219 L 81.503906 87.929688 "/>
<path style="fill:none;stroke-width:0.75;stroke-linecap:round;stroke-linejoin:round;stroke:rgb(74.509804%,75.686275%,83.137255%);stroke-opacity:0.8;stroke-miterlimit:10;" d="M 81.503906 85.742188 L 84.925781 100.519531 L 81.503906 103.246094 L 85.300781 111.132812 L 64.414062 138.734375 L 77.238281 104.222656 L 59.265625 85.511719 L 81.503906 85.742188 "/>
<path style="fill:none;stroke-width:0.75;stroke-linecap:round;stroke-linejoin:round;stroke:rgb(0.784314%,24.705882%,64.705882%);stroke-opacity:0.8;stroke-miterlimit:10;" d="M 186.117188 142.632812 L 186.117188 95.371094 L 199.246094 95.371094 L 199.246094 79.617188 L 225.503906 79.617188 L 225.503906 63.863281 L 264.890625 63.863281 "/>
<path style="fill:none;stroke-width:0.75;stroke-linecap:round;stroke-linejoin:round;stroke:rgb(49.019608%,52.941176%,72.54902%);stroke-opacity:0.8;stroke-miterlimit:10;" d="M 186.117188 142.632812 L 186.117188 122.941406 L 197.371094 122.941406 L 197.371094 103.246094 L 219.878906 103.246094 L 219.878906 83.554688 L 242.382812 83.554688 L 242.382812 63.863281 L 264.890625 63.863281 "/>
<path style=" stroke:none;fill-rule:nonzero;fill:rgb(0.784314%,24.705882%,64.705882%);fill-opacity:0.8;" d="M 369.503906 103.246094 L 369.503906 74.675781 L 371.496094 74.742188 L 373.480469 74.953125 L 375.445312 75.296875 L 377.378906 75.78125 L 379.277344 76.398438 L 381.125 77.144531 L 382.917969 78.019531 L 384.644531 79.015625 L 386.300781 80.132812 L 387.871094 81.359375 L 389.351562 82.695312 L 390.738281 84.128906 L 392.019531 85.65625 L 393.191406 87.269531 L 394.25 88.960938 Z M 369.503906 103.246094 "/>
<path style=" stroke:none;fill-rule:nonzero;fill:rgb(49.019608%,52.941176%,72.54902%);fill-opacity:0.8;" d="M 369.503906 103.246094 L 392.980469 89.695312 L 393.867188 91.363281 L 394.636719 93.09375 L 395.285156 94.871094 L 395.804688 96.691406 L 396.199219 98.539062 L 396.464844 100.414062 L 396.59375 102.300781 L 396.59375 104.195312 L 396.464844 106.082031 L 396.199219 107.957031 L 395.804688 109.804688 L 395.285156 111.625 L 394.636719 113.402344 L 393.867188 115.132812 L 392.980469 116.800781 Z M 369.503906 103.246094 "/>
<path style=" stroke:none;fill-rule:nonzero;fill:rgb(74.509804%,75.686275%,83.137255%);fill-opacity:0.8;" d="M 369.503906 103.246094 L 403.613281 122.941406 L 402.15625 125.273438 L 400.542969 127.496094 L 398.773438 129.601562 L 396.863281 131.582031 L 394.820312 133.421875 L 392.65625 135.113281 L 390.375 136.648438 L 387.996094 138.023438 L 385.523438 139.230469 L 382.976562 140.257812 L 380.359375 141.109375 L 377.691406 141.773438 L 374.984375 142.25 L 372.25 142.539062 L 369.503906 142.632812 Z M 369.503906 103.246094 "/>
<path style=" stroke:none;fill-rule:nonzero;fill:rgb(83.921569%,73.72549%,75.294118%);fill-opacity:0.8;" d="M 369.503906 103.246094 L 369.503906 130.355469 L 367.613281 130.289062 L 365.730469 130.09375 L 363.867188 129.761719 L 362.03125 129.304688 L 360.234375 128.722656 L 358.476562 128.011719 L 356.777344 127.183594 L 355.140625 126.238281 L 353.570312 125.179688 L 352.078125 124.015625 L 350.671875 122.746094 L 349.359375 121.386719 L 348.144531 119.9375 L 347.03125 118.40625 L 346.027344 116.800781 Z M 369.503906 103.246094 "/>
<path style=" stroke:none;fill-rule:nonzero;fill:rgb(73.333333%,46.666667%,51.764706%);fill-opacity:0.8;" d="M 369.503906 103.246094 L 339.195312 120.746094 L 338.050781 118.589844 L 337.054688 116.359375 L 336.222656 114.0625 L 335.546875 111.714844 L 335.039062 109.324219 L 334.699219 106.90625 L 334.53125 104.46875 L 334.53125 102.027344 L 334.699219 99.589844 L 335.039062 97.171875 L 335.546875 94.78125 L 336.222656 92.433594 L 337.054688 90.136719 L 338.050781 87.90625 L 339.195312 85.75 Z M 369.503906 103.246094 "/>
<path style=" stroke:none;fill-rule:nonzero;fill:rgb(55.686275%,2.352941%,23.137255%);fill-opacity:0.8;" d="M 369.503906 103.246094 L 352.007812 93.144531 L 352.753906 91.949219 L 353.582031 90.808594 L 354.488281 89.726562 L 355.46875 88.714844 L 356.515625 87.769531 L 357.628906 86.902344 L 358.796875 86.113281 L 360.019531 85.40625 L 361.285156 84.789062 L 362.59375 84.261719 L 363.933594 83.824219 L 365.304688 83.484375 L 366.691406 83.238281 L 368.09375 83.09375 L 369.503906 83.042969 Z M 369.503906 103.246094 "/>
<path style=" stroke:none;fill-rule:nonzero;fill:rgb(0.784314%,24.705882%,64.705882%);fill-opacity:0.8;" d="M 513.503906 63.863281 L 516.34375 63.964844 L 519.167969 64.269531 L 521.960938 64.78125 L 524.710938 65.488281 L 527.402344 66.394531 L 530.023438 67.492188 L 532.558594 68.777344 L 534.992188 70.238281 L 537.316406 71.875 L 539.515625 73.671875 L 541.578125 75.625 L 543.496094 77.71875 L 545.257812 79.949219 L 529.382812 91.597656 L 528.5 90.484375 L 527.542969 89.4375 L 526.511719 88.460938 L 525.410156 87.5625 L 524.25 86.742188 L 523.03125 86.011719 L 521.765625 85.371094 L 520.453125 84.820312 L 519.109375 84.367188 L 517.734375 84.015625 L 516.335938 83.757812 L 514.921875 83.605469 L 513.503906 83.554688 Z M 513.503906 63.863281 "/>
<path style=" stroke:none;fill-rule:nonzero;fill:rgb(49.019608%,52.941176%,72.54902%);fill-opacity:0.8;" d="M 545.257812 79.949219 L 546.820312 82.238281 L 548.210938 84.628906 L 549.433594 87.117188 L 550.480469 89.679688 L 551.34375 92.3125 L 552.015625 95 L 552.5 97.726562 L 552.792969 100.480469 L 552.890625 103.246094 L 552.792969 106.015625 L 552.5 108.769531 L 552.015625 111.496094 L 532.761719 107.371094 L 533.003906 106.007812 L 533.148438 104.632812 L 533.199219 103.246094 L 533.148438 101.863281 L 533.003906 100.488281 L 532.761719 99.125 L 532.421875 97.78125 L 531.992188 96.464844 L 531.46875 95.183594 L 530.859375 93.9375 L 530.160156 92.742188 L 529.382812 91.597656 Z M 545.257812 79.949219 "/>
<path style=" stroke:none;fill-rule:nonzero;fill:rgb(74.509804%,75.686275%,83.137255%);fill-opacity:0.8;" d="M 552.015625 111.496094 L 551.390625 114.019531 L 550.597656 116.492188 L 549.640625 118.910156 L 548.53125 121.261719 L 547.265625 123.53125 L 545.855469 125.714844 L 544.304688 127.796875 L 542.617188 129.773438 L 540.804688 131.636719 L 538.875 133.375 L 536.832031 134.984375 L 534.6875 136.453125 L 532.453125 137.777344 L 530.132812 138.953125 L 527.742188 139.96875 L 525.289062 140.828125 L 522.785156 141.523438 L 520.242188 142.054688 L 517.667969 142.414062 L 515.078125 142.601562 L 512.476562 142.621094 L 509.882812 142.46875 L 507.304688 142.144531 L 504.753906 141.652344 L 502.242188 140.988281 L 499.777344 140.164062 L 497.371094 139.179688 L 505.4375 121.214844 L 506.640625 121.707031 L 507.871094 122.117188 L 509.128906 122.449219 L 510.40625 122.695312 L 511.695312 122.859375 L 512.992188 122.933594 L 514.289062 122.925781 L 515.585938 122.832031 L 516.875 122.652344 L 518.144531 122.386719 L 519.398438 122.039062 L 520.625 121.609375 L 521.820312 121.101562 L 522.976562 120.511719 L 524.097656 119.851562 L 525.167969 119.117188 L 526.1875 118.3125 L 527.15625 117.441406 L 528.0625 116.511719 L 528.902344 115.523438 L 529.679688 114.480469 L 530.386719 113.390625 L 531.015625 112.253906 L 531.574219 111.078125 L 532.050781 109.871094 L 532.445312 108.632812 L 532.761719 107.371094 Z M 552.015625 111.496094 "/>
<path style=" stroke:none;fill-rule:nonzero;fill:rgb(83.921569%,73.72549%,75.294118%);fill-opacity:0.8;" d="M 497.371094 139.179688 L 494.886719 137.957031 L 492.492188 136.5625 L 490.203125 135.003906 L 488.03125 133.289062 L 485.980469 131.421875 L 484.070312 129.417969 L 482.304688 127.285156 L 480.691406 125.035156 L 479.242188 122.675781 L 477.960938 120.21875 L 476.855469 117.679688 L 475.933594 115.066406 L 494.71875 109.15625 L 495.179688 110.464844 L 495.730469 111.734375 L 496.371094 112.960938 L 497.097656 114.140625 L 497.902344 115.265625 L 498.785156 116.332031 L 499.742188 117.335938 L 500.765625 118.269531 L 501.855469 119.125 L 503 119.90625 L 504.195312 120.601562 L 505.4375 121.214844 Z M 497.371094 139.179688 "/>
<path style=" stroke:none;fill-rule:nonzero;fill:rgb(73.333333%,46.666667%,51.764706%);fill-opacity:0.8;" d="M 475.933594 115.066406 L 475.226562 112.527344 L 474.691406 109.941406 L 474.328125 107.328125 L 474.144531 104.699219 L 474.136719 102.0625 L 474.304688 99.429688 L 474.648438 96.8125 L 475.164062 94.226562 L 475.855469 91.679688 L 476.714844 89.1875 L 477.738281 86.753906 L 478.921875 84.398438 L 480.261719 82.125 L 481.75 79.949219 L 483.378906 77.875 L 485.144531 75.914062 L 487.039062 74.078125 L 489.050781 72.371094 L 491.171875 70.804688 L 493.394531 69.382812 L 495.707031 68.113281 L 504.605469 85.679688 L 503.449219 86.316406 L 502.335938 87.027344 L 501.277344 87.808594 L 500.269531 88.664062 L 499.324219 89.582031 L 498.441406 90.5625 L 497.625 91.597656 L 496.882812 92.6875 L 496.210938 93.824219 L 495.621094 95 L 495.109375 96.21875 L 494.679688 97.464844 L 494.335938 98.738281 L 494.074219 100.03125 L 493.902344 101.339844 L 493.820312 102.65625 L 493.824219 103.972656 L 493.917969 105.289062 L 494.097656 106.59375 L 494.363281 107.886719 L 494.71875 109.15625 Z M 475.933594 115.066406 "/>
<path style=" stroke:none;fill-rule:nonzero;fill:rgb(55.686275%,2.352941%,23.137255%);fill-opacity:0.8;" d="M 495.707031 68.113281 L 498.503906 66.832031 L 501.390625 65.769531 L 504.355469 64.9375 L 507.371094 64.339844 L 510.429688 63.980469 L 513.503906 63.863281 L 513.503906 83.554688 L 511.964844 83.613281 L 510.4375 83.792969 L 508.929688 84.09375 L 507.449219 84.507812 L 506.003906 85.039062 L 504.605469 85.679688 Z M 495.707031 68.113281 "/>
<path style=" stroke:none;fill-rule:nonzero;fill:rgb(0.784314%,24.705882%,64.705882%);fill-opacity:0.8;" d="M 618.117188 142.632812 L 631.246094 142.632812 L 631.246094 79.980469 L 618.117188 79.980469 Z M 618.117188 142.632812 "/>
<path style=" stroke:none;fill-rule:nonzero;fill:rgb(49.019608%,52.941176%,72.54902%);fill-opacity:0.8;" d="M 631.246094 142.632812 L 644.375 142.632812 L 644.375 86.246094 L 631.246094 86.246094 Z M 631.246094 142.632812 "/>
<g clip-path="url(#clip1)" clip-rule="nonzero">
<path style=" stroke:none;fill-rule:nonzero;fill:rgb(74.509804%,75.686275%,83.137255%);fill-opacity:0.8;" d="M 644.375 142.632812 L 657.503906 142.632812 L 657.503906 23.59375 L 644.375 23.59375 Z M 644.375 142.632812 "/>
</g>
<path style=" stroke:none;fill-rule:nonzero;fill:rgb(83.921569%,73.72549%,75.294118%);fill-opacity:0.8;" d="M 657.503906 142.632812 L 670.632812 142.632812 L 670.632812 86.246094 L 657.503906 86.246094 Z M 657.503906 142.632812 "/>
<path style=" stroke:none;fill-rule:nonzero;fill:rgb(73.333333%,46.666667%,51.764706%);fill-opacity:0.8;" d="M 670.632812 142.632812 L 683.761719 142.632812 L 683.761719 48.652344 L 670.632812 48.652344 Z M 670.632812 142.632812 "/>
<path style=" stroke:none;fill-rule:nonzero;fill:rgb(55.686275%,2.352941%,23.137255%);fill-opacity:0.8;" d="M 683.761719 142.632812 L 696.890625 142.632812 L 696.890625 111.304688 L 683.761719 111.304688 Z M 683.761719 142.632812 "/>
<path style="fill:none;stroke-width:0.75;stroke-linecap:round;stroke-linejoin:round;stroke:rgb(74.509804%,74.509804%,74.509804%);stroke-opacity:1;stroke-miterlimit:10;" d="M 801.503906 83.554688 L 802.753906 83.59375 L 803.996094 83.714844 L 805.230469 83.910156 L 806.449219 84.1875 L 807.648438 84.539062 L 808.824219 84.964844 L 809.96875 85.464844 L 811.078125 86.039062 L 812.152344 86.679688 L 813.179688 87.390625 L 814.164062 88.160156 L 815.09375 88.996094 L 815.96875 89.886719 L 816.789062 90.832031 L 817.546875 91.824219 L 818.238281 92.863281 L 818.863281 93.949219 L 819.417969 95.066406 L 819.902344 96.21875 L 820.308594 97.402344 L 820.640625 98.605469 L 820.898438 99.828125 L 821.074219 101.066406 L 821.175781 102.3125 L 821.195312 103.558594 L 821.136719 104.808594 L 820.996094 106.050781 L 820.78125 107.28125 L 820.484375 108.496094 L 820.113281 109.6875 L 819.667969 110.855469 L 819.148438 111.992188 L 818.558594 113.09375 L 817.898438 114.15625 L 817.175781 115.175781 L 816.386719 116.144531 L 815.539062 117.0625 L 814.636719 117.925781 L 813.675781 118.726562 L 812.671875 119.46875 L 811.621094 120.144531 L 810.527344 120.753906 L 809.398438 121.289062 L 808.238281 121.753906 L 807.050781 122.144531 L 805.84375 122.457031 L 804.617188 122.695312 L 803.375 122.851562 L 802.128906 122.929688 L 800.878906 122.929688 L 799.632812 122.851562 L 798.390625 122.695312 L 797.164062 122.457031 L 795.957031 122.144531 L 794.769531 121.753906 L 793.609375 121.289062 L 792.480469 120.753906 L 791.386719 120.144531 L 790.335938 119.46875 L 789.332031 118.726562 L 788.375 117.925781 L 787.46875 117.0625 L 786.621094 116.144531 L 785.832031 115.175781 L 785.109375 114.15625 L 784.449219 113.09375 L 783.859375 111.992188 L 783.339844 110.855469 L 782.894531 109.6875 L 782.523438 108.496094 L 782.226562 107.28125 L 782.011719 106.050781 L 781.871094 104.808594 L 781.8125 103.558594 L 781.832031 102.3125 L 781.933594 101.066406 L 782.109375 99.828125 L 782.367188 98.605469 L 782.699219 97.402344 L 783.109375 96.21875 L 783.589844 95.066406 L 784.144531 93.949219 L 784.769531 92.863281 L 785.460938 91.824219 L 786.21875 90.832031 L 787.039062 89.886719 L 787.914062 88.996094 L 788.84375 88.160156 L 789.828125 87.390625 L 790.855469 86.679688 L 791.929688 86.039062 L 793.039062 85.464844 L 794.183594 84.964844 L 795.359375 84.539062 L 796.558594 84.1875 L 797.777344 83.910156 L 799.011719 83.714844 L 800.253906 83.59375 L 801.503906 83.554688 "/>
<path style=" stroke:none;fill-rule:nonzero;fill:rgb(0.784314%,24.705882%,64.705882%);fill-opacity:0.8;" d="M 811.050781 75.109375 L 811.742188 75.128906 L 812.433594 75.195312 L 813.117188 75.304688 L 813.792969 75.457031 L 814.457031 75.652344 L 815.105469 75.890625 L 815.742188 76.167969 L 816.355469 76.484375 L 816.953125 76.839844 L 817.523438 77.234375 L 818.066406 77.664062 L 818.582031 78.125 L 819.066406 78.617188 L 819.523438 79.140625 L 819.941406 79.691406 L 820.324219 80.269531 L 820.671875 80.867188 L 820.980469 81.488281 L 821.246094 82.128906 L 821.472656 82.78125 L 821.65625 83.449219 L 821.800781 84.128906 L 821.898438 84.8125 L 821.953125 85.503906 L 821.964844 86.195312 L 821.929688 86.886719 L 821.855469 87.578125 L 821.734375 88.257812 L 821.570312 88.933594 L 821.363281 89.59375 L 821.117188 90.238281 L 820.828125 90.871094 L 820.503906 91.480469 L 820.136719 92.070312 L 819.734375 92.632812 L 819.300781 93.171875 L 818.828125 93.679688 L 818.328125 94.15625 L 817.796875 94.601562 L 817.238281 95.011719 L 816.65625 95.386719 L 816.050781 95.722656 L 815.425781 96.023438 L 814.785156 96.28125 L 814.125 96.496094 L 813.457031 96.667969 L 812.773438 96.800781 L 812.089844 96.886719 L 811.398438 96.933594 L 810.703125 96.933594 L 810.011719 96.886719 L 809.324219 96.800781 L 808.644531 96.667969 L 807.976562 96.496094 L 807.316406 96.28125 L 806.675781 96.023438 L 806.050781 95.722656 L 805.445312 95.386719 L 804.859375 95.011719 L 804.304688 94.601562 L 803.773438 94.15625 L 803.273438 93.679688 L 802.800781 93.171875 L 802.363281 92.632812 L 801.964844 92.070312 L 801.597656 91.480469 L 801.269531 90.871094 L 800.984375 90.238281 L 800.734375 89.59375 L 800.53125 88.933594 L 800.367188 88.257812 L 800.246094 87.578125 L 800.171875 86.886719 L 800.136719 86.195312 L 800.148438 85.503906 L 800.203125 84.8125 L 800.300781 84.128906 L 800.445312 83.449219 L 800.628906 82.78125 L 800.855469 82.128906 L 801.121094 81.488281 L 801.429688 80.867188 L 801.777344 80.269531 L 802.160156 79.691406 L 802.578125 79.140625 L 803.03125 78.617188 L 803.519531 78.125 L 804.035156 77.664062 L 804.578125 77.234375 L 805.148438 76.839844 L 805.742188 76.484375 L 806.359375 76.167969 L 806.992188 75.890625 L 807.644531 75.652344 L 808.308594 75.457031 L 808.984375 75.304688 L 809.667969 75.195312 L 810.359375 75.128906 Z M 811.050781 75.109375 "/>
<path style=" stroke:none;fill-rule:nonzero;fill:rgb(49.019608%,52.941176%,72.54902%);fill-opacity:0.8;" d="M 821.136719 91.449219 L 821.789062 91.46875 L 822.433594 91.53125 L 823.078125 91.632812 L 823.710938 91.777344 L 824.335938 91.960938 L 824.949219 92.183594 L 825.542969 92.445312 L 826.121094 92.742188 L 826.679688 93.074219 L 827.21875 93.445312 L 827.730469 93.847656 L 828.214844 94.28125 L 828.671875 94.746094 L 829.097656 95.238281 L 829.492188 95.753906 L 829.851562 96.296875 L 830.175781 96.859375 L 830.464844 97.441406 L 830.714844 98.042969 L 830.929688 98.660156 L 831.101562 99.285156 L 831.234375 99.921875 L 831.328125 100.566406 L 831.378906 101.214844 L 831.390625 101.867188 L 831.359375 102.515625 L 831.289062 103.164062 L 831.175781 103.804688 L 831.019531 104.4375 L 830.828125 105.058594 L 830.597656 105.664062 L 830.324219 106.257812 L 830.019531 106.832031 L 829.675781 107.382812 L 829.296875 107.914062 L 828.886719 108.417969 L 828.445312 108.898438 L 827.976562 109.347656 L 827.476562 109.765625 L 826.953125 110.152344 L 826.40625 110.503906 L 825.835938 110.820312 L 825.25 111.097656 L 824.644531 111.339844 L 824.027344 111.542969 L 823.394531 111.707031 L 822.757812 111.832031 L 822.113281 111.914062 L 821.460938 111.953125 L 820.8125 111.953125 L 820.160156 111.914062 L 819.515625 111.832031 L 818.878906 111.707031 L 818.246094 111.542969 L 817.628906 111.339844 L 817.023438 111.097656 L 816.4375 110.820312 L 815.867188 110.503906 L 815.320312 110.152344 L 814.796875 109.765625 L 814.296875 109.347656 L 813.828125 108.898438 L 813.386719 108.417969 L 812.976562 107.914062 L 812.597656 107.382812 L 812.253906 106.832031 L 811.949219 106.257812 L 811.675781 105.664062 L 811.445312 105.058594 L 811.253906 104.4375 L 811.097656 103.804688 L 810.984375 103.164062 L 810.914062 102.515625 L 810.882812 101.867188 L 810.894531 101.214844 L 810.945312 100.566406 L 811.035156 99.921875 L 811.171875 99.285156 L 811.34375 98.660156 L 811.554688 98.042969 L 811.808594 97.441406 L 812.097656 96.859375 L 812.421875 96.296875 L 812.78125 95.753906 L 813.175781 95.238281 L 813.601562 94.746094 L 814.058594 94.28125 L 814.542969 93.847656 L 815.054688 93.445312 L 815.59375 93.074219 L 816.152344 92.742188 L 816.730469 92.445312 L 817.324219 92.183594 L 817.9375 91.960938 L 818.5625 91.777344 L 819.195312 91.632812 L 819.839844 91.53125 L 820.484375 91.46875 Z M 821.136719 91.449219 "/>
<path style=" stroke:none;fill-rule:nonzero;fill:rgb(74.509804%,75.686275%,83.137255%);fill-opacity:0.8;" d="M 810.449219 104.285156 L 811.496094 104.320312 L 812.539062 104.417969 L 813.574219 104.582031 L 814.597656 104.8125 L 815.601562 105.109375 L 816.585938 105.46875 L 817.546875 105.886719 L 818.476562 106.367188 L 819.375 106.90625 L 820.238281 107.5 L 821.0625 108.148438 L 821.839844 108.84375 L 822.578125 109.59375 L 823.261719 110.382812 L 823.898438 111.21875 L 824.476562 112.089844 L 825 112.996094 L 825.464844 113.933594 L 825.871094 114.902344 L 826.214844 115.890625 L 826.492188 116.898438 L 826.707031 117.925781 L 826.855469 118.960938 L 826.9375 120.007812 L 826.957031 121.054688 L 826.90625 122.101562 L 826.789062 123.140625 L 826.609375 124.171875 L 826.359375 125.191406 L 826.050781 126.191406 L 825.675781 127.167969 L 825.242188 128.121094 L 824.746094 129.046875 L 824.195312 129.933594 L 823.585938 130.789062 L 822.925781 131.601562 L 822.214844 132.371094 L 821.457031 133.09375 L 820.65625 133.765625 L 819.8125 134.386719 L 818.929688 134.953125 L 818.015625 135.464844 L 817.070312 135.914062 L 816.097656 136.304688 L 815.101562 136.628906 L 814.085938 136.894531 L 813.058594 137.089844 L 812.019531 137.222656 L 810.972656 137.289062 L 809.925781 137.289062 L 808.882812 137.222656 L 807.84375 137.089844 L 806.8125 136.894531 L 805.800781 136.628906 L 804.804688 136.304688 L 803.832031 135.914062 L 802.886719 135.464844 L 801.972656 134.953125 L 801.089844 134.386719 L 800.246094 133.765625 L 799.445312 133.09375 L 798.6875 132.371094 L 797.976562 131.601562 L 797.316406 130.789062 L 796.707031 129.933594 L 796.15625 129.046875 L 795.660156 128.121094 L 795.226562 127.167969 L 794.851562 126.191406 L 794.542969 125.191406 L 794.292969 124.171875 L 794.113281 123.140625 L 793.996094 122.101562 L 793.945312 121.054688 L 793.964844 120.007812 L 794.046875 118.960938 L 794.195312 117.925781 L 794.410156 116.898438 L 794.6875 115.890625 L 795.03125 114.902344 L 795.4375 113.933594 L 795.902344 112.996094 L 796.425781 112.089844 L 797.003906 111.21875 L 797.640625 110.382812 L 798.324219 109.59375 L 799.058594 108.84375 L 799.839844 108.148438 L 800.664062 107.5 L 801.527344 106.90625 L 802.425781 106.367188 L 803.355469 105.886719 L 804.316406 105.46875 L 805.300781 105.109375 L 806.304688 104.8125 L 807.328125 104.582031 L 808.359375 104.417969 L 809.402344 104.320312 Z M 810.449219 104.285156 "/>
<path style=" stroke:none;fill-rule:nonzero;fill:rgb(83.921569%,73.72549%,75.294118%);fill-opacity:0.8;" d="M 788.726562 107.976562 L 789.375 107.996094 L 790.023438 108.058594 L 790.667969 108.164062 L 791.300781 108.304688 L 791.925781 108.488281 L 792.535156 108.710938 L 793.132812 108.972656 L 793.710938 109.269531 L 794.269531 109.605469 L 794.804688 109.972656 L 795.316406 110.375 L 795.800781 110.808594 L 796.257812 111.273438 L 796.683594 111.765625 L 797.078125 112.285156 L 797.441406 112.824219 L 797.765625 113.390625 L 798.054688 113.972656 L 798.304688 114.574219 L 798.519531 115.1875 L 798.691406 115.816406 L 798.824219 116.453125 L 798.917969 117.097656 L 798.96875 117.746094 L 798.980469 118.394531 L 798.949219 119.046875 L 798.875 119.691406 L 798.761719 120.332031 L 798.609375 120.964844 L 798.417969 121.585938 L 798.183594 122.195312 L 797.914062 122.785156 L 797.605469 123.359375 L 797.265625 123.914062 L 796.886719 124.441406 L 796.476562 124.949219 L 796.035156 125.425781 L 795.5625 125.875 L 795.066406 126.292969 L 794.539062 126.679688 L 793.992188 127.03125 L 793.425781 127.347656 L 792.835938 127.628906 L 792.234375 127.871094 L 791.613281 128.074219 L 790.984375 128.234375 L 790.347656 128.359375 L 789.699219 128.441406 L 789.050781 128.484375 L 788.398438 128.484375 L 787.75 128.441406 L 787.105469 128.359375 L 786.464844 128.234375 L 785.835938 128.074219 L 785.21875 127.871094 L 784.613281 127.628906 L 784.027344 127.347656 L 783.457031 127.03125 L 782.910156 126.679688 L 782.386719 126.292969 L 781.886719 125.875 L 781.417969 125.425781 L 780.976562 124.949219 L 780.566406 124.441406 L 780.1875 123.914062 L 779.84375 123.359375 L 779.535156 122.785156 L 779.265625 122.195312 L 779.035156 121.585938 L 778.839844 120.964844 L 778.6875 120.332031 L 778.574219 119.691406 L 778.503906 119.046875 L 778.472656 118.394531 L 778.480469 117.746094 L 778.53125 117.097656 L 778.625 116.453125 L 778.757812 115.816406 L 778.933594 115.1875 L 779.144531 114.574219 L 779.398438 113.972656 L 779.6875 113.390625 L 780.011719 112.824219 L 780.371094 112.285156 L 780.765625 111.765625 L 781.191406 111.273438 L 781.648438 110.808594 L 782.132812 110.375 L 782.644531 109.972656 L 783.179688 109.605469 L 783.738281 109.269531 L 784.316406 108.972656 L 784.914062 108.710938 L 785.523438 108.488281 L 786.148438 108.304688 L 786.785156 108.164062 L 787.425781 108.058594 L 788.074219 107.996094 Z M 788.726562 107.976562 "/>
<path style=" stroke:none;fill-rule:nonzero;fill:rgb(73.333333%,46.666667%,51.764706%);fill-opacity:0.8;" d="M 782.351562 84.605469 L 783.246094 84.632812 L 784.132812 84.714844 L 785.011719 84.859375 L 785.882812 85.054688 L 786.738281 85.304688 L 787.578125 85.609375 L 788.394531 85.96875 L 789.1875 86.375 L 789.953125 86.835938 L 790.6875 87.339844 L 791.386719 87.890625 L 792.050781 88.484375 L 792.675781 89.121094 L 793.261719 89.796875 L 793.800781 90.503906 L 794.296875 91.246094 L 794.742188 92.019531 L 795.136719 92.820312 L 795.480469 93.640625 L 795.773438 94.484375 L 796.011719 95.34375 L 796.195312 96.21875 L 796.320312 97.101562 L 796.390625 97.988281 L 796.40625 98.878906 L 796.363281 99.769531 L 796.265625 100.65625 L 796.109375 101.535156 L 795.898438 102.402344 L 795.632812 103.253906 L 795.316406 104.085938 L 794.945312 104.898438 L 794.523438 105.683594 L 794.054688 106.441406 L 793.535156 107.167969 L 792.972656 107.859375 L 792.371094 108.515625 L 791.722656 109.132812 L 791.039062 109.703125 L 790.324219 110.234375 L 789.574219 110.714844 L 788.792969 111.148438 L 787.988281 111.53125 L 787.160156 111.863281 L 786.3125 112.140625 L 785.449219 112.367188 L 784.574219 112.535156 L 783.6875 112.648438 L 782.800781 112.703125 L 781.90625 112.703125 L 781.015625 112.648438 L 780.132812 112.535156 L 779.257812 112.367188 L 778.394531 112.140625 L 777.546875 111.863281 L 776.71875 111.53125 L 775.914062 111.148438 L 775.132812 110.714844 L 774.382812 110.234375 L 773.664062 109.703125 L 772.980469 109.132812 L 772.335938 108.515625 L 771.730469 107.859375 L 771.167969 107.167969 L 770.652344 106.441406 L 770.183594 105.683594 L 769.761719 104.898438 L 769.390625 104.085938 L 769.070312 103.253906 L 768.808594 102.402344 L 768.597656 101.535156 L 768.441406 100.65625 L 768.34375 99.769531 L 768.300781 98.878906 L 768.316406 97.988281 L 768.386719 97.101562 L 768.511719 96.21875 L 768.695312 95.34375 L 768.933594 94.484375 L 769.222656 93.640625 L 769.570312 92.820312 L 769.964844 92.019531 L 770.410156 91.246094 L 770.90625 90.503906 L 771.445312 89.796875 L 772.027344 89.121094 L 772.65625 88.484375 L 773.320312 87.890625 L 774.019531 87.339844 L 774.753906 86.835938 L 775.519531 86.375 L 776.3125 85.96875 L 777.128906 85.609375 L 777.96875 85.304688 L 778.824219 85.054688 L 779.695312 84.859375 L 780.574219 84.714844 L 781.460938 84.632812 Z M 782.351562 84.605469 "/>
<path style=" stroke:none;fill-rule:nonzero;fill:rgb(55.686275%,2.352941%,23.137255%);fill-opacity:0.8;" d="M 794.605469 77.4375 L 795.074219 77.453125 L 795.539062 77.496094 L 796 77.570312 L 796.457031 77.671875 L 796.902344 77.804688 L 797.34375 77.964844 L 797.769531 78.152344 L 798.1875 78.367188 L 798.585938 78.605469 L 798.972656 78.871094 L 799.339844 79.160156 L 799.6875 79.472656 L 800.015625 79.804688 L 800.320312 80.160156 L 800.605469 80.53125 L 800.863281 80.917969 L 801.097656 81.324219 L 801.304688 81.742188 L 801.484375 82.175781 L 801.636719 82.617188 L 801.761719 83.066406 L 801.859375 83.523438 L 801.925781 83.984375 L 801.960938 84.453125 L 801.96875 84.917969 L 801.949219 85.386719 L 801.894531 85.851562 L 801.8125 86.308594 L 801.703125 86.765625 L 801.566406 87.210938 L 801.398438 87.648438 L 801.203125 88.074219 L 800.984375 88.484375 L 800.738281 88.882812 L 800.464844 89.261719 L 800.171875 89.625 L 799.855469 89.96875 L 799.515625 90.289062 L 799.160156 90.589844 L 798.78125 90.867188 L 798.390625 91.121094 L 797.980469 91.347656 L 797.558594 91.550781 L 797.125 91.722656 L 796.679688 91.867188 L 796.230469 91.984375 L 795.769531 92.074219 L 795.304688 92.132812 L 794.839844 92.164062 L 794.371094 92.164062 L 793.90625 92.132812 L 793.441406 92.074219 L 792.984375 91.984375 L 792.53125 91.867188 L 792.085938 91.722656 L 791.652344 91.550781 L 791.230469 91.347656 L 790.824219 91.121094 L 790.429688 90.867188 L 790.054688 90.589844 L 789.695312 90.289062 L 789.359375 89.96875 L 789.039062 89.625 L 788.746094 89.261719 L 788.476562 88.882812 L 788.226562 88.484375 L 788.007812 88.074219 L 787.8125 87.648438 L 787.648438 87.210938 L 787.507812 86.765625 L 787.398438 86.308594 L 787.316406 85.851562 L 787.265625 85.386719 L 787.242188 84.917969 L 787.25 84.453125 L 787.285156 83.984375 L 787.351562 83.523438 L 787.449219 83.066406 L 787.574219 82.617188 L 787.726562 82.175781 L 787.90625 81.742188 L 788.113281 81.324219 L 788.347656 80.917969 L 788.605469 80.53125 L 788.890625 80.160156 L 789.195312 79.804688 L 789.523438 79.472656 L 789.871094 79.160156 L 790.238281 78.871094 L 790.625 78.605469 L 791.027344 78.367188 L 791.441406 78.152344 L 791.867188 77.964844 L 792.308594 77.804688 L 792.757812 77.671875 L 793.210938 77.570312 L 793.671875 77.496094 L 794.140625 77.453125 Z M 794.605469 77.4375 "/>
<path style=" stroke:none;fill-rule:nonzero;fill:rgb(0.784314%,24.705882%,64.705882%);fill-opacity:0.8;" d="M 906.117188 142.632812 L 917.875 142.632812 L 917.875 63.859375 L 906.117188 63.859375 Z M 906.117188 142.632812 "/>
<path style=" stroke:none;fill-rule:nonzero;fill:rgb(49.019608%,52.941176%,72.54902%);fill-opacity:0.8;" d="M 917.875 142.632812 L 928.457031 142.632812 L 928.457031 63.859375 L 917.875 63.859375 Z M 917.875 142.632812 "/>
<path style=" stroke:none;fill-rule:nonzero;fill:rgb(74.509804%,75.686275%,83.137255%);fill-opacity:0.8;" d="M 928.457031 142.632812 L 950.796875 142.632812 L 950.796875 63.859375 L 928.457031 63.859375 Z M 928.457031 142.632812 "/>
<path style=" stroke:none;fill-rule:nonzero;fill:rgb(83.921569%,73.72549%,75.294118%);fill-opacity:0.8;" d="M 950.792969 142.632812 L 961.375 142.632812 L 961.375 63.859375 L 950.792969 63.859375 Z M 950.792969 142.632812 "/>
<path style=" stroke:none;fill-rule:nonzero;fill:rgb(73.333333%,46.666667%,51.764706%);fill-opacity:0.8;" d="M 961.375 142.632812 L 979.011719 142.632812 L 979.011719 63.859375 L 961.375 63.859375 Z M 961.375 142.632812 "/>
<path style=" stroke:none;fill-rule:nonzero;fill:rgb(55.686275%,2.352941%,23.137255%);fill-opacity:0.8;" d="M 979.011719 142.632812 L 984.890625 142.632812 L 984.890625 63.859375 L 979.011719 63.859375 Z M 979.011719 142.632812 "/>
<path style=" stroke:none;fill-rule:nonzero;fill:rgb(0.784314%,24.705882%,64.705882%);fill-opacity:0.8;" d="M 1050.117188 90.117188 L 1050.117188 63.863281 L 1085.390625 63.863281 L 1085.390625 90.117188 Z M 1050.117188 90.117188 "/>
<path style=" stroke:none;fill-rule:nonzero;fill:rgb(49.019608%,52.941176%,72.54902%);fill-opacity:0.8;" d="M 1085.390625 90.117188 L 1085.390625 63.863281 L 1117.132812 63.863281 L 1117.132812 90.117188 Z M 1085.390625 90.117188 "/>
<path style=" stroke:none;fill-rule:nonzero;fill:rgb(74.509804%,75.686275%,83.137255%);fill-opacity:0.8;" d="M 1073.632812 116.375 L 1073.632812 90.117188 L 1117.132812 90.117188 L 1117.132812 63.863281 L 1128.890625 63.863281 L 1128.890625 116.375 Z M 1073.632812 116.375 "/>
<path style=" stroke:none;fill-rule:nonzero;fill:rgb(83.921569%,73.72549%,75.294118%);fill-opacity:0.8;" d="M 1050.117188 142.632812 L 1050.117188 90.117188 L 1073.632812 90.117188 L 1073.632812 116.375 L 1058.347656 116.375 L 1058.347656 142.632812 Z M 1050.117188 142.632812 "/>
<path style=" stroke:none;fill-rule:nonzero;fill:rgb(73.333333%,46.666667%,51.764706%);fill-opacity:0.8;" d="M 1058.347656 142.632812 L 1058.347656 116.375 L 1111.253906 116.375 L 1111.253906 142.632812 Z M 1058.347656 142.632812 "/>
<path style=" stroke:none;fill-rule:nonzero;fill:rgb(55.686275%,2.352941%,23.137255%);fill-opacity:0.8;" d="M 1111.253906 142.632812 L 1111.253906 116.375 L 1128.890625 116.375 L 1128.890625 142.632812 Z M 1111.253906 142.632812 "/>
<path style=" stroke:none;fill-rule:nonzero;fill:rgb(0.784314%,24.705882%,64.705882%);fill-opacity:0.8;" d="M 1233.503906 103.246094 L 1233.503906 63.863281 L 1236.34375 63.964844 L 1239.167969 64.269531 L 1241.960938 64.78125 L 1244.710938 65.488281 L 1247.402344 66.394531 L 1250.023438 67.492188 L 1252.558594 68.777344 L 1254.992188 70.238281 L 1257.316406 71.875 L 1259.515625 73.671875 L 1261.578125 75.625 L 1263.496094 77.71875 L 1265.257812 79.949219 Z M 1233.503906 103.246094 "/>
<path style=" stroke:none;fill-rule:nonzero;fill:rgb(49.019608%,52.941176%,72.54902%);fill-opacity:0.8;" d="M 1233.503906 103.246094 L 1265.257812 79.949219 L 1266.820312 82.238281 L 1268.210938 84.628906 L 1269.433594 87.117188 L 1270.480469 89.679688 L 1271.34375 92.3125 L 1272.015625 95 L 1272.5 97.726562 L 1272.792969 100.480469 L 1272.890625 103.246094 L 1272.792969 106.015625 L 1272.5 108.769531 L 1272.015625 111.496094 Z M 1233.503906 103.246094 "/>
<path style=" stroke:none;fill-rule:nonzero;fill:rgb(74.509804%,75.686275%,83.137255%);fill-opacity:0.8;" d="M 1233.503906 103.246094 L 1272.015625 111.496094 L 1271.390625 114.019531 L 1270.597656 116.492188 L 1269.640625 118.910156 L 1268.53125 121.261719 L 1267.265625 123.53125 L 1265.855469 125.714844 L 1264.304688 127.796875 L 1262.617188 129.773438 L 1260.804688 131.636719 L 1258.875 133.375 L 1256.832031 134.984375 L 1254.6875 136.453125 L 1252.453125 137.777344 L 1250.132812 138.953125 L 1247.742188 139.96875 L 1245.289062 140.828125 L 1242.785156 141.523438 L 1240.242188 142.054688 L 1237.667969 142.414062 L 1235.078125 142.601562 L 1232.476562 142.621094 L 1229.882812 142.46875 L 1227.304688 142.144531 L 1224.753906 141.652344 L 1222.242188 140.988281 L 1219.777344 140.164062 L 1217.371094 139.179688 Z M 1233.503906 103.246094 "/>
<path style=" stroke:none;fill-rule:nonzero;fill:rgb(83.921569%,73.72549%,75.294118%);fill-opacity:0.8;" d="M 1233.503906 103.246094 L 1217.371094 139.179688 L 1214.886719 137.957031 L 1212.492188 136.5625 L 1210.203125 135.003906 L 1208.03125 133.289062 L 1205.980469 131.421875 L 1204.070312 129.417969 L 1202.304688 127.285156 L 1200.691406 125.035156 L 1199.242188 122.675781 L 1197.960938 120.21875 L 1196.855469 117.679688 L 1195.933594 115.066406 Z M 1233.503906 103.246094 "/>
<path style=" stroke:none;fill-rule:nonzero;fill:rgb(73.333333%,46.666667%,51.764706%);fill-opacity:0.8;" d="M 1233.503906 103.246094 L 1195.933594 115.066406 L 1195.226562 112.527344 L 1194.691406 109.941406 L 1194.328125 107.328125 L 1194.144531 104.699219 L 1194.136719 102.0625 L 1194.304688 99.429688 L 1194.648438 96.8125 L 1195.164062 94.226562 L 1195.855469 91.679688 L 1196.714844 89.1875 L 1197.738281 86.753906 L 1198.921875 84.398438 L 1200.261719 82.125 L 1201.75 79.949219 L 1203.378906 77.875 L 1205.144531 75.914062 L 1207.039062 74.078125 L 1209.050781 72.371094 L 1211.171875 70.804688 L 1213.394531 69.382812 L 1215.707031 68.113281 Z M 1233.503906 103.246094 "/>
<path style=" stroke:none;fill-rule:nonzero;fill:rgb(55.686275%,2.352941%,23.137255%);fill-opacity:0.8;" d="M 1233.503906 103.246094 L 1215.707031 68.113281 L 1218.503906 66.832031 L 1221.390625 65.769531 L 1224.355469 64.9375 L 1227.371094 64.339844 L 1230.429688 63.980469 L 1233.503906 63.863281 Z M 1233.503906 103.246094 "/>
</g>
</svg>
